<?xml version="1.0" encoding="UTF-8"?>
<!DOCTYPE svg PUBLIC "-//W3C//DTD SVG 1.1//EN" "http://www.w3.org/Graphics/SVG/1.1/DTD/svg11.dtd">
<svg xmlns="http://www.w3.org/2000/svg" version="1.1" width="46px" height="46px" style="shape-rendering:geometricPrecision; text-rendering:geometricPrecision; image-rendering:optimizeQuality; fill-rule:evenodd; clip-rule:evenodd" xmlns:xlink="http://www.w3.org/1999/xlink">
<g><path style="opacity:0.695" fill="#0f92fe" d="M -0.5,33.5 C -0.5,33.1667 -0.5,32.8333 -0.5,32.5C 2.43408,24.7798 4.76741,16.7798 6.5,8.5C 8.60395,8.2011 10.604,8.53443 12.5,9.5C 14.9097,16.971 17.243,24.471 19.5,32C 18.9931,34.3413 17.8265,34.8413 16,33.5C 13.8445,26.5448 11.8445,19.5448 10,12.5C 7.80198,18.7612 5.80198,25.0945 4,31.5C 3.27424,34.285 1.77424,34.9516 -0.5,33.5 Z"/></g>
<g><path style="opacity:0.773" fill="#0b92fe" d="M 45.5,22.5 C 45.5,26.1667 45.5,29.8333 45.5,33.5C 43.7376,33.6427 42.0709,33.3094 40.5,32.5C 31.3282,35.9974 25.4949,32.9974 23,23.5C 22.5172,24.448 22.3505,25.448 22.5,26.5C 21.1667,26.5 19.8333,26.5 18.5,26.5C 18.5,25.1667 18.5,23.8333 18.5,22.5C 19.8333,22.5 21.1667,22.5 22.5,22.5C 23.5162,10.1562 29.8495,6.15617 41.5,10.5C 43.8541,12.2461 44.8541,14.5794 44.5,17.5C 43.0222,17.762 41.6888,17.4287 40.5,16.5C 38.1624,12.5449 34.829,11.5449 30.5,13.5C 26.5302,18.6322 26.5302,23.7989 30.5,29C 34.1736,31.0853 37.5069,30.5853 40.5,27.5C 38.604,26.5344 36.604,26.2011 34.5,26.5C 34.33,25.1779 34.6634,24.0113 35.5,23C 38.8168,22.5017 42.1501,22.335 45.5,22.5 Z"/></g>
<g><path style="opacity:0.49" fill="#0093fe" d="M 7.5,22.5 C 8.83333,22.5 10.1667,22.5 11.5,22.5C 11.5,23.8333 11.5,25.1667 11.5,26.5C 10.1667,26.5 8.83333,26.5 7.5,26.5C 7.5,25.1667 7.5,23.8333 7.5,22.5 Z"/></g>
</svg>
