<?xml version="1.0" encoding="UTF-8"?>
<!DOCTYPE svg PUBLIC "-//W3C//DTD SVG 1.1//EN" "http://www.w3.org/Graphics/SVG/1.1/DTD/svg11.dtd">
<svg xmlns="http://www.w3.org/2000/svg" version="1.1" width="568px" height="568px" style="shape-rendering:geometricPrecision; text-rendering:geometricPrecision; image-rendering:optimizeQuality; fill-rule:evenodd; clip-rule:evenodd" xmlns:xlink="http://www.w3.org/1999/xlink">
<g><path style="opacity:0.983" fill="#41b66f" d="M 261.5,-0.5 C 276.167,-0.5 290.833,-0.5 305.5,-0.5C 399.231,9.42717 472.064,53.4272 524,131.5C 549.666,173.328 564.166,218.662 567.5,267.5C 567.5,277.833 567.5,288.167 567.5,298.5C 559.152,396.734 513.818,472.568 431.5,526C 388.25,551.642 341.583,565.476 291.5,567.5C 286.167,567.5 280.833,567.5 275.5,567.5C 169.378,561.045 89.2108,512.378 35,421.5C 14.5204,383.575 2.68708,343.242 -0.5,300.5C -0.5,288.833 -0.5,277.167 -0.5,265.5C 8.42899,167.097 54.429,91.5968 137.5,39C 176.024,16.6571 217.358,3.49039 261.5,-0.5 Z M 272.5,54.5 C 353.545,53.6111 418.712,84.9444 468,148.5C 515.133,217.349 524.133,291.016 495,369.5C 461.423,444.732 404.256,490.898 323.5,508C 237.418,520.201 165.584,494.035 108,429.5C 53.0692,358.665 41.0692,280.999 72,196.5C 103.891,124.617 158.058,79.1175 234.5,60C 247.221,57.4961 259.887,55.6628 272.5,54.5 Z"/></g>
<g><path style="opacity:0.987" fill="#41b66f" d="M 408.5,407.5 C 367.469,355.862 354.969,297.862 371,233.5C 379.913,201.323 396.247,173.656 420,150.5C 464.925,197.285 482.592,252.951 473,317.5C 459.653,383.161 422.82,430.328 362.5,459C 298.722,484.423 237.722,479.09 179.5,443C 169.571,435.87 160.238,428.037 151.5,419.5C 183.581,386.946 222.581,368.446 268.5,364C 321.041,360.351 367.707,374.851 408.5,407.5 Z"/></g>
<g><path style="opacity:0.986" fill="#41b66f" d="M 154.5,153.5 C 235.609,156.116 293.776,193.783 329,266.5C 339.484,291.089 344.651,316.756 344.5,343.5C 264.566,339.974 206.732,302.641 171,231.5C 160.193,206.63 154.693,180.63 154.5,153.5 Z"/></g>
</svg>
