<?xml version="1.0" encoding="UTF-8"?>
<!DOCTYPE svg PUBLIC "-//W3C//DTD SVG 1.1//EN" "http://www.w3.org/Graphics/SVG/1.1/DTD/svg11.dtd">
<svg xmlns="http://www.w3.org/2000/svg" version="1.1" width="256px" height="256px" style="shape-rendering:geometricPrecision; text-rendering:geometricPrecision; image-rendering:optimizeQuality; fill-rule:evenodd; clip-rule:evenodd" xmlns:xlink="http://www.w3.org/1999/xlink">
<g><path style="opacity:0.968" fill="#512ad4" d="M 121.5,20.5 C 132.804,18.987 141.971,22.6537 149,31.5C 179.414,84.6636 210.081,137.664 241,190.5C 247.611,204.654 244.778,216.487 232.5,226C 230.283,227.275 227.949,228.275 225.5,229C 160.167,229.667 94.8333,229.667 29.5,229C 11.8303,221.342 6.6636,208.508 14,190.5C 44,138.5 74,86.5 104,34.5C 108.288,27.6927 114.121,23.0261 121.5,20.5 Z"/></g>
<g><path style="opacity:1" fill="#7354dc" d="M 194.5,141.5 C 174.5,141.5 154.5,141.5 134.5,141.5C 125.092,125.69 115.926,109.69 107,93.5C 102.463,88.5247 96.9628,87.1913 90.5,89.5C 99.6426,73.2212 108.809,56.8878 118,40.5C 127.317,32.6735 134.651,34.3402 140,45.5C 158.444,77.3922 176.61,109.392 194.5,141.5 Z"/></g>
<g><path style="opacity:1" fill="#967fe4" d="M 134.5,141.5 C 110.661,141.169 86.9941,141.502 63.5,142.5C 61.7162,142.893 60.0495,143.559 58.5,144.5C 68.3977,125.702 79.0644,107.369 90.5,89.5C 96.9628,87.1913 102.463,88.5247 107,93.5C 115.926,109.69 125.092,125.69 134.5,141.5 Z"/></g>
<g><path style="opacity:1" fill="#dbd4f5" d="M 63.5,142.5 C 68.1264,141.7 71.9597,143.034 75,146.5C 85.4153,164.333 96.082,181.999 107,199.5C 109.135,206.55 106.968,211.55 100.5,214.5C 78.5,214.5 56.5,214.5 34.5,214.5C 27.3727,212.523 24.5394,207.856 26,200.5C 36.5925,181.642 47.4259,162.975 58.5,144.5C 60.0495,143.559 61.7162,142.893 63.5,142.5 Z"/></g>
<g><path style="opacity:1" fill="#b8a9ed" d="M 63.5,142.5 C 86.9941,141.502 110.661,141.169 134.5,141.5C 145.069,160.303 155.902,178.97 167,197.5C 170.248,204.824 168.414,210.324 161.5,214C 141.169,214.5 120.836,214.667 100.5,214.5C 106.968,211.55 109.135,206.55 107,199.5C 96.082,181.999 85.4153,164.333 75,146.5C 71.9597,143.034 68.1264,141.7 63.5,142.5 Z"/></g>
<g><path style="opacity:1" fill="#957ee4" d="M 134.5,141.5 C 154.5,141.5 174.5,141.5 194.5,141.5C 206.478,160.775 217.978,180.442 229,200.5C 230.403,207.773 227.57,212.607 220.5,215C 158.332,215.832 96.332,215.665 34.5,214.5C 56.5,214.5 78.5,214.5 100.5,214.5C 120.836,214.667 141.169,214.5 161.5,214C 168.414,210.324 170.248,204.824 167,197.5C 155.902,178.97 145.069,160.303 134.5,141.5 Z"/></g>
</svg>
