<svg width="256" height="256" viewBox="0 0 256 256" fill="none" xmlns="http://www.w3.org/2000/svg">
<g clip-path="url(#clip0_1_943)">
<path d="M65.08 216.038L13.5601 189.598L13.08 189.358C5.31996 185.398 0 177.318 0 167.998V87.998C0 78.678 5.31996 70.598 13.08 66.638L13.5601 66.398L65.08 39.958C57.32 43.958 52 51.998 52 61.318V194.678C52 203.998 57.32 212.038 65.08 216.038Z" fill="url(#paint0_linear_1_943)"/>
<path d="M241.24 39.158C238.4 37.998 235.28 37.318 232 37.318C224 37.318 216.92 41.238 212.56 47.238L212.48 47.358L192 75.598L154 127.998L114.28 182.758L95.52 208.638L95.4399 208.758C91.0799 214.758 84 218.678 76 218.678C72.16 218.678 68.52 217.758 65.28 216.158C65.2 216.118 65.12 216.078 65.08 216.038L13.5601 189.598C16.7201 191.118 20.28 191.998 24 191.998C32.44 191.998 39.84 187.638 44.12 181.078L52 168.958L78.64 127.998L114.28 73.238L147.88 21.598C152.16 14.998 159.56 10.678 168 10.678C171.28 10.678 174.4 11.318 177.24 12.518L241.24 39.158Z" fill="url(#paint1_linear_1_943)"/>
<path d="M241.24 39.158C238.4 37.998 235.28 37.318 232 37.318C224 37.318 216.92 41.238 212.56 47.238L212.48 47.358L192 75.598L154 127.998L114.28 182.758L95.52 208.638L95.4399 208.758C91.0799 214.758 84 218.678 76 218.678C72.16 218.678 68.52 217.758 65.28 216.158C65.2 216.118 65.12 216.078 65.08 216.038L13.5601 189.598C16.7201 191.118 20.28 191.998 24 191.998C32.44 191.998 39.84 187.638 44.12 181.078L52 168.958L78.64 127.998L114.28 73.238L147.88 21.598C152.16 14.998 159.56 10.678 168 10.678C171.28 10.678 174.4 11.318 177.24 12.518L241.24 39.158Z" fill="url(#paint2_linear_1_943)" fill-opacity="0.3"/>
<path d="M241.24 216.838L177.24 243.478C174.4 244.678 171.28 245.318 168 245.318C159.56 245.318 152.16 240.998 147.88 234.398L114.28 182.758L78.64 127.998L52 87.0381L44.12 74.9181C39.84 68.3581 32.44 63.9981 24 63.9981C20.28 63.9981 16.7201 64.8781 13.5601 66.3981L65.08 39.9581C65.12 39.9181 65.2 39.8781 65.28 39.8381C68.52 38.2381 72.16 37.3181 76 37.3181C84 37.3181 91.0799 41.2381 95.4399 47.2381L95.52 47.3581L114.28 73.2381L154 127.998L192 180.398L212.48 208.638L212.56 208.758C216.92 214.758 224 218.678 232 218.678C235.28 218.678 238.4 217.998 241.24 216.838Z" fill="url(#paint3_linear_1_943)"/>
<path d="M241.24 216.838L177.24 243.478C174.4 244.678 171.28 245.318 168 245.318C159.56 245.318 152.16 240.998 147.88 234.398L114.28 182.758L78.64 127.998L52 87.0381L44.12 74.9181C39.84 68.3581 32.44 63.9981 24 63.9981C20.28 63.9981 16.7201 64.8781 13.5601 66.3981L65.08 39.9581C65.12 39.9181 65.2 39.8781 65.28 39.8381C68.52 38.2381 72.16 37.3181 76 37.3181C84 37.3181 91.0799 41.2381 95.4399 47.2381L95.52 47.3581L114.28 73.2381L154 127.998L192 180.398L212.48 208.638L212.56 208.758C216.92 214.758 224 218.678 232 218.678C235.28 218.678 238.4 217.998 241.24 216.838Z" fill="url(#paint4_radial_1_943)"/>
<path d="M256 61.3181V194.678C256 204.638 249.92 213.198 241.24 216.838L177.24 243.478C185.92 239.878 192 231.318 192 221.318V34.6781C192 24.6781 185.92 16.1181 177.24 12.5181L241.24 39.1581C249.92 42.7981 256 51.3581 256 61.3181Z" fill="url(#paint5_linear_1_943)"/>
</g>
<defs>
<linearGradient id="paint0_linear_1_943" x1="-24.2354" y1="216.038" x2="83.5542" y2="158.686" gradientUnits="userSpaceOnUse">
<stop offset="0.0725439" stop-color="#85148A"/>
<stop offset="0.296162" stop-color="#7F21A9"/>
<stop offset="0.661273" stop-color="#5B2AB5"/>
<stop offset="0.854932" stop-color="#4B20A0"/>
</linearGradient>
<linearGradient id="paint1_linear_1_943" x1="165.436" y1="2.67797" x2="55.8073" y2="233.437" gradientUnits="userSpaceOnUse">
<stop stop-color="#4B20A0"/>
<stop offset="0.265936" stop-color="#6D37CD"/>
<stop offset="0.7848" stop-color="#7A41DC"/>
<stop offset="1" stop-color="#CA59F7"/>
</linearGradient>
<linearGradient id="paint2_linear_1_943" x1="142.065" y1="110.678" x2="63.0371" y2="167.208" gradientUnits="userSpaceOnUse">
<stop stop-color="#30116E" stop-opacity="0"/>
<stop offset="0.164241" stop-color="#30116E" stop-opacity="0.7"/>
<stop offset="0.712141" stop-color="#30116E"/>
<stop offset="1" stop-color="#30116E" stop-opacity="0"/>
</linearGradient>
<linearGradient id="paint3_linear_1_943" x1="44.8258" y1="37.3181" x2="164.911" y2="271.838" gradientUnits="userSpaceOnUse">
<stop offset="0.0374343" stop-color="#FFBAC7"/>
<stop offset="0.187907" stop-color="#EA71EF"/>
<stop offset="0.349289" stop-color="#CA59F7"/>
<stop offset="0.618324" stop-color="#8B52F4"/>
<stop offset="1" stop-color="#5750E2"/>
</linearGradient>
<radialGradient id="paint4_radial_1_943" cx="0" cy="0" r="1" gradientTransform="matrix(215.747 86.6666 -197.178 492.004 -3.69969 149.318)" gradientUnits="userSpaceOnUse">
<stop offset="0.611142" stop-color="#8B52F4" stop-opacity="0"/>
<stop offset="0.977982" stop-color="#30116E"/>
</radialGradient>
<linearGradient id="paint5_linear_1_943" x1="216.62" y1="-10.6204" x2="216.62" y2="274.614" gradientUnits="userSpaceOnUse">
<stop stop-color="#FFBAC7"/>
<stop offset="0.291496" stop-color="#EA71EF"/>
<stop offset="0.675458" stop-color="#8B52F4"/>
<stop offset="0.916582" stop-color="#5750E2"/>
</linearGradient>
<clipPath id="clip0_1_943">
<rect width="256" height="256" fill="white"/>
</clipPath>
</defs>
</svg>
